<svg xmlns="http://www.w3.org/2000/svg" xmlns:xlink="http://www.w3.org/1999/xlink" width="500" zoomAndPan="magnify" viewBox="0 0 375 374.999991" height="500" preserveAspectRatio="xMidYMid meet" version="1.0">
    <defs>
      <clipPath id="7a4ee36ed4">
        <path d="M 0 24 L 207 24 L 207 323 L 0 323 Z M 0 24 " clip-rule="nonzero"/>
      </clipPath>
      <clipPath id="c87dd9ead3">
        <path d="M 327.914062 192.605469 L 147.316406 322.996094 L -22.589844 87.675781 L 158.007812 -42.71875 Z M 327.914062 192.605469 " clip-rule="nonzero"/>
      </clipPath>
      <clipPath id="6d2a95392b">
        <path d="M 327.914062 192.605469 L -34.496094 454.269531 L -204.402344 218.945312 L 158.007812 -42.71875 Z M 327.914062 192.605469 " clip-rule="nonzero"/>
      </clipPath>
      <clipPath id="9949831c70">
        <path d="M 47 26 L 375 26 L 375 375 L 47 375 Z M 47 26 " clip-rule="nonzero"/>
      </clipPath>
      <clipPath id="eace225a75">
        <path d="M 397.414062 261.726562 L 216.816406 392.117188 L 46.910156 156.796875 L 227.507812 26.402344 Z M 397.414062 261.726562 " clip-rule="nonzero"/>
      </clipPath>
      <clipPath id="e906e7f637">
        <path d="M 121 0.398438 L 328 0.398438 L 328 299 L 121 299 Z M 121 0.398438 " clip-rule="nonzero"/>
      </clipPath>
      <clipPath id="e42fe2030c">
        <path d="M 350.414062 235.726562 L 169.816406 366.117188 L -0.0898438 130.796875 L 180.507812 0.402344 Z M 350.414062 235.726562 " clip-rule="nonzero"/>
      </clipPath>
      <clipPath id="b5fa9ec545">
        <path d="M 0.0859375 130.65625 L 362.496094 -131.007812 L 532.402344 104.316406 L 169.992188 365.980469 Z M 0.0859375 130.65625 " clip-rule="nonzero"/>
      </clipPath>
      <clipPath id="cbd1b30412">
        <rect x="0" width="328" y="0" height="349"/>
      </clipPath>
    </defs>
    <g clip-path="url(#7a4ee36ed4)">
      <g clip-path="url(#c87dd9ead3)">
        <g clip-path="url(#6d2a95392b)">
          <path fill="currentColor" d="M 187.074219 243.128906 L 170.125 281.011719 L 153.117188 318.808594 L 128.835938 285.179688 L 104.554688 251.546875 L 80.269531 217.914062 L 55.988281 184.285156 L 31.707031 150.652344 L 7.425781 117.023438 L 41.441406 41.429688 L 82.671875 37.175781 L 123.898438 32.925781 L 165.128906 28.675781 L 206.480469 24.59375 L 172.464844 100.1875 L 131.234375 104.441406 L 90.003906 108.691406 L 114.226562 142.238281 L 138.507812 175.867188 L 162.789062 209.5 Z M 57.996094 336.324219 L 99.226562 332.074219 L 140.429688 327.96875 L 116.148438 294.335938 L 91.867188 260.707031 L 67.585938 227.074219 L 43.304688 193.445312 L 19.019531 159.8125 L -5.261719 126.183594 L -46.488281 130.433594 L -87.71875 134.683594 L -138.742188 248.074219 L -155.753906 285.871094 L -114.316406 281.730469 L -73.085938 277.476562 L -39.070312 201.882812 L -14.847656 235.429688 L 9.433594 269.0625 L 33.714844 302.691406 Z M 57.996094 336.324219 " fill-rule="evenodd"/>
        </g>
      </g>
    </g>
    <g clip-path="url(#9949831c70)">
      <g clip-path="url(#eace225a75)">
        <g transform="matrix(1, 0, 0, 1, 47, 26)">
          <g clip-path="url(#cbd1b30412)">
            <g clip-path="url(#e906e7f637)">
              <g clip-path="url(#e42fe2030c)">
                <g clip-path="url(#b5fa9ec545)">
                  <path fill="currentColor" d="M 140.925781 80.128906 L 157.871094 42.25 L 174.878906 4.453125 L 199.164062 38.082031 L 223.445312 71.714844 L 247.726562 105.34375 L 296.289062 172.609375 L 320.574219 206.238281 L 303.5625 244.035156 L 286.554688 281.832031 L 245.328125 286.082031 L 204.097656 290.335938 L 162.871094 294.585938 L 121.515625 298.664062 L 138.527344 260.867188 L 155.535156 223.070312 L 196.761719 218.820312 L 237.992188 214.570312 L 213.769531 181.023438 L 189.488281 147.394531 Z M 270 -13.0625 L 228.773438 -8.8125 L 187.566406 -4.707031 L 211.847656 28.921875 L 236.128906 62.554688 L 260.414062 96.1875 L 284.695312 129.816406 L 308.976562 163.449219 L 333.257812 197.078125 L 374.488281 192.828125 L 415.714844 188.578125 L 432.726562 150.78125 L 483.75 37.390625 L 442.3125 41.53125 L 401.082031 45.78125 L 367.066406 121.375 L 342.847656 87.832031 L 318.566406 54.199219 L 294.28125 20.566406 Z M 270 -13.0625 " fill-rule="evenodd"/>
                </g>
              </g>
            </g>
          </g>
        </g>
      </g>
    </g>
  </svg>